<svg width="210" height="40" viewBox="0 0 210 40" fill="none" xmlns="http://www.w3.org/2000/svg">
<rect x="0.5" y="0.499939" width="209" height="39" rx="19.5" fill="#EAEBEB" fill-opacity="0.24"/>
<path fill-rule="evenodd" clip-rule="evenodd" d="M30.3999 20.1514C30.3999 19.6787 30.3575 19.2242 30.2787 18.7878H23.9999V21.3666H27.5878C27.4333 22.1999 26.9636 22.906 26.2575 23.3787V25.0514H28.412C29.6726 23.8908 30.3999 22.1817 30.3999 20.1514Z" fill="#4285F4"/>
<path fill-rule="evenodd" clip-rule="evenodd" d="M23.9999 26.6666C25.7999 26.6666 27.309 26.0696 28.412 25.0514L26.2575 23.3787C25.6605 23.7787 24.8969 24.0151 23.9999 24.0151C22.2636 24.0151 20.7939 22.8423 20.2696 21.2666H18.0423V22.9939C19.1393 25.1726 21.3939 26.6666 23.9999 26.6666Z" fill="#34A853"/>
<path fill-rule="evenodd" clip-rule="evenodd" d="M20.2696 21.2666C20.1363 20.8666 20.0605 20.4393 20.0605 19.9999C20.0605 19.5605 20.1363 19.1333 20.2696 18.7333V17.006H18.0423C17.5908 17.906 17.3333 18.9242 17.3333 19.9999C17.3333 21.0757 17.5908 22.0939 18.0423 22.9939L20.2696 21.2666Z" fill="#FBBC05"/>
<path fill-rule="evenodd" clip-rule="evenodd" d="M23.9999 15.9848C24.9787 15.9848 25.8575 16.3211 26.5484 16.9817L28.4605 15.0696C27.306 13.9939 25.7969 13.3333 23.9999 13.3333C21.3939 13.3333 19.1393 14.8272 18.0423 17.006L20.2696 18.7333C20.7939 17.1575 22.2636 15.9848 23.9999 15.9848Z" fill="#EA4335"/>
<path d="M44.5509 24.6679C43.8323 24.6679 43.1976 24.5466 42.6469 24.3039C42.0963 24.0519 41.6623 23.6973 41.3449 23.2399C41.0276 22.7733 40.8643 22.2086 40.8549 21.5459H42.7449C42.7636 22.0033 42.9269 22.3906 43.2349 22.7079C43.5523 23.0159 43.9863 23.1699 44.5369 23.1699C45.0129 23.1699 45.3909 23.0579 45.6709 22.8339C45.9509 22.6006 46.0909 22.2926 46.0909 21.9099C46.0909 21.5086 45.9649 21.1959 45.7129 20.9719C45.4703 20.7479 45.1436 20.5659 44.7329 20.4259C44.3223 20.2859 43.8836 20.1366 43.4169 19.9779C42.6609 19.7166 42.0823 19.3806 41.6809 18.9699C41.2889 18.5593 41.0929 18.0133 41.0929 17.3319C41.0836 16.7533 41.2189 16.2586 41.4989 15.8479C41.7883 15.4279 42.1803 15.1059 42.6749 14.8819C43.1696 14.6486 43.7389 14.5319 44.3829 14.5319C45.0363 14.5319 45.6103 14.6486 46.1049 14.8819C46.6089 15.1153 47.0009 15.4419 47.2809 15.8619C47.5703 16.2819 47.7243 16.7813 47.7429 17.3599H45.8249C45.8156 17.0146 45.6803 16.7113 45.4189 16.4499C45.1669 16.1793 44.8123 16.0439 44.3549 16.0439C43.9629 16.0346 43.6316 16.1326 43.3609 16.3379C43.0996 16.5339 42.9689 16.8233 42.9689 17.2059C42.9689 17.5326 43.0716 17.7939 43.2769 17.9899C43.4823 18.1766 43.7623 18.3353 44.1169 18.4659C44.4716 18.5966 44.8776 18.7366 45.3349 18.8859C45.8203 19.0539 46.2636 19.2499 46.6649 19.4739C47.0663 19.6979 47.3883 19.9966 47.6309 20.3699C47.8736 20.7339 47.9949 21.2053 47.9949 21.7839C47.9949 22.2973 47.8643 22.7733 47.6029 23.2119C47.3416 23.6506 46.9543 24.0053 46.4409 24.2759C45.9276 24.5373 45.2976 24.6679 44.5509 24.6679ZM52.1204 24.6679C51.2524 24.6679 50.5804 24.3973 50.1044 23.8559C49.6378 23.3146 49.4044 22.5213 49.4044 21.4759V17.5559H51.1824V21.3079C51.1824 21.9053 51.3038 22.3626 51.5464 22.6799C51.7891 22.9973 52.1718 23.1559 52.6944 23.1559C53.1891 23.1559 53.5951 22.9786 53.9124 22.6239C54.2391 22.2693 54.4024 21.7746 54.4024 21.1399V17.5559H56.1944V24.4999H54.6124L54.4724 23.3239C54.2578 23.7346 53.9451 24.0613 53.5344 24.3039C53.1331 24.5466 52.6618 24.6679 52.1204 24.6679ZM60.904 24.6679C60.288 24.6679 59.7467 24.5699 59.28 24.3739C58.8134 24.1686 58.44 23.8886 58.16 23.5339C57.88 23.1793 57.712 22.7686 57.656 22.3019H59.462C59.518 22.5726 59.6674 22.8059 59.91 23.0019C60.162 23.1886 60.484 23.2819 60.876 23.2819C61.268 23.2819 61.5527 23.2026 61.73 23.0439C61.9167 22.8853 62.01 22.7033 62.01 22.4979C62.01 22.1993 61.8794 21.9986 61.618 21.8959C61.3567 21.7839 60.9927 21.6766 60.526 21.5739C60.2274 21.5086 59.924 21.4293 59.616 21.3359C59.308 21.2426 59.0234 21.1259 58.762 20.9859C58.51 20.8366 58.3047 20.6499 58.146 20.4259C57.9874 20.1926 57.908 19.9079 57.908 19.5719C57.908 18.9559 58.1507 18.4379 58.636 18.0179C59.1307 17.5979 59.8214 17.3879 60.708 17.3879C61.5294 17.3879 62.1827 17.5793 62.668 17.9619C63.1627 18.3446 63.4567 18.8719 63.55 19.5439H61.856C61.7534 19.0306 61.366 18.7739 60.694 18.7739C60.358 18.7739 60.0967 18.8393 59.91 18.9699C59.7327 19.1006 59.644 19.2639 59.644 19.4599C59.644 19.6653 59.7794 19.8286 60.05 19.9499C60.3207 20.0713 60.68 20.1833 61.128 20.2859C61.6134 20.3979 62.0567 20.5239 62.458 20.6639C62.8687 20.7946 63.1954 20.9953 63.438 21.2659C63.6807 21.5273 63.802 21.9053 63.802 22.3999C63.8114 22.8293 63.6994 23.2166 63.466 23.5619C63.2327 23.9073 62.8967 24.1779 62.458 24.3739C62.0194 24.5699 61.5014 24.6679 60.904 24.6679ZM68.7915 24.6679C68.0822 24.6679 67.4568 24.5139 66.9155 24.2059C66.3742 23.8979 65.9448 23.4686 65.6275 22.9179C65.3195 22.3673 65.1655 21.7373 65.1655 21.0279C65.1655 20.3186 65.3195 19.6886 65.6275 19.1379C65.9448 18.5873 66.3742 18.1579 66.9155 17.8499C67.4568 17.5419 68.0822 17.3879 68.7915 17.3879C69.6782 17.3879 70.4248 17.6213 71.0315 18.0879C71.6382 18.5453 72.0255 19.1799 72.1935 19.9919H70.3035C70.2102 19.6559 70.0235 19.3946 69.7435 19.2079C69.4728 19.0119 69.1508 18.9139 68.7775 18.9139C68.2828 18.9139 67.8628 19.1006 67.5175 19.4739C67.1722 19.8473 66.9995 20.3653 66.9995 21.0279C66.9995 21.6906 67.1722 22.2086 67.5175 22.5819C67.8628 22.9553 68.2828 23.1419 68.7775 23.1419C69.1508 23.1419 69.4728 23.0486 69.7435 22.8619C70.0235 22.6753 70.2102 22.4093 70.3035 22.0639H72.1935C72.0255 22.8479 71.6382 23.4779 71.0315 23.9539C70.4248 24.4299 69.6782 24.6679 68.7915 24.6679ZM73.784 24.4999V17.5559H75.38L75.548 18.8579C75.8 18.4099 76.1407 18.0553 76.57 17.7939C77.0087 17.5233 77.522 17.3879 78.11 17.3879V19.2779H77.606C77.214 19.2779 76.864 19.3386 76.556 19.4599C76.248 19.5813 76.0054 19.7913 75.828 20.0899C75.66 20.3886 75.576 20.8039 75.576 21.3359V24.4999H73.784ZM79.3348 24.4999V17.5559H81.1268V24.4999H79.3348ZM79.7688 16.9959V15.7359L82.9328 14.0279V15.4839L79.7688 16.9959ZM87.9078 24.6679C87.3852 24.6679 86.9278 24.5699 86.5358 24.3739C86.1438 24.1779 85.8265 23.9026 85.5838 23.5479L85.3878 24.4999H83.7918V14.4199H85.5838V18.5499C85.8078 18.2419 86.1018 17.9713 86.4658 17.7379C86.8392 17.5046 87.3198 17.3879 87.9078 17.3879C88.5612 17.3879 89.1445 17.5466 89.6578 17.8639C90.1712 18.1813 90.5772 18.6153 90.8758 19.1659C91.1745 19.7166 91.3238 20.3419 91.3238 21.0419C91.3238 21.7419 91.1745 22.3673 90.8758 22.9179C90.5772 23.4593 90.1712 23.8886 89.6578 24.2059C89.1445 24.5139 88.5612 24.6679 87.9078 24.6679ZM87.5298 23.0999C88.0992 23.0999 88.5705 22.9086 88.9438 22.5259C89.3172 22.1433 89.5038 21.6486 89.5038 21.0419C89.5038 20.4353 89.3172 19.9359 88.9438 19.5439C88.5705 19.1519 88.0992 18.9559 87.5298 18.9559C86.9512 18.9559 86.4752 19.1519 86.1018 19.5439C85.7378 19.9266 85.5558 20.4213 85.5558 21.0279C85.5558 21.6346 85.7378 22.1339 86.1018 22.5259C86.4752 22.9086 86.9512 23.0999 87.5298 23.0999ZM96.2986 24.6679C95.5986 24.6679 94.978 24.5186 94.4366 24.2199C93.8953 23.9213 93.4706 23.5013 93.1626 22.9599C92.8546 22.4186 92.7006 21.7933 92.7006 21.0839C92.7006 20.3653 92.85 19.7259 93.1486 19.1659C93.4566 18.6059 93.8766 18.1719 94.4086 17.8639C94.95 17.5466 95.5846 17.3879 96.3126 17.3879C96.994 17.3879 97.596 17.5373 98.1186 17.8359C98.6413 18.1346 99.0473 18.5453 99.3366 19.0679C99.6353 19.5813 99.7846 20.1553 99.7846 20.7899C99.7846 20.8926 99.78 20.9999 99.7706 21.1119C99.7706 21.2239 99.766 21.3406 99.7566 21.4619H94.4786C94.516 22.0033 94.7026 22.4279 95.0386 22.7359C95.384 23.0439 95.7993 23.1979 96.2846 23.1979C96.6486 23.1979 96.952 23.1186 97.1946 22.9599C97.4466 22.7919 97.6333 22.5773 97.7546 22.3159H99.5746C99.444 22.7546 99.2246 23.1559 98.9166 23.5199C98.618 23.8746 98.2446 24.1546 97.7966 24.3599C97.358 24.5653 96.8586 24.6679 96.2986 24.6679ZM96.3126 18.8439C95.874 18.8439 95.4866 18.9699 95.1506 19.2219C94.8146 19.4646 94.6 19.8379 94.5066 20.3419H97.9646C97.9366 19.8846 97.7686 19.5206 97.4606 19.2499C97.1526 18.9793 96.77 18.8439 96.3126 18.8439ZM104.263 24.4999C103.535 24.4999 102.951 24.3226 102.513 23.9679C102.074 23.6133 101.855 22.9833 101.855 22.0779V19.0539H100.665V17.5559H101.855L102.065 15.6939H103.647V17.5559H105.523V19.0539H103.647V22.0919C103.647 22.4279 103.717 22.6613 103.857 22.7919C104.006 22.9133 104.258 22.9739 104.613 22.9739H105.481V24.4999H104.263ZM110.258 24.6679C109.558 24.6679 108.937 24.5186 108.396 24.2199C107.854 23.9213 107.43 23.5013 107.122 22.9599C106.814 22.4186 106.66 21.7933 106.66 21.0839C106.66 20.3653 106.809 19.7259 107.108 19.1659C107.416 18.6059 107.836 18.1719 108.368 17.8639C108.909 17.5466 109.544 17.3879 110.272 17.3879C110.953 17.3879 111.555 17.5373 112.078 17.8359C112.6 18.1346 113.006 18.5453 113.296 19.0679C113.594 19.5813 113.744 20.1553 113.744 20.7899C113.744 20.8926 113.739 20.9999 113.73 21.1119C113.73 21.2239 113.725 21.3406 113.716 21.4619H108.438C108.475 22.0033 108.662 22.4279 108.998 22.7359C109.343 23.0439 109.758 23.1979 110.244 23.1979C110.608 23.1979 110.911 23.1186 111.154 22.9599C111.406 22.7919 111.592 22.5773 111.714 22.3159H113.534C113.403 22.7546 113.184 23.1559 112.876 23.5199C112.577 23.8746 112.204 24.1546 111.756 24.3599C111.317 24.5653 110.818 24.6679 110.258 24.6679ZM110.272 18.8439C109.833 18.8439 109.446 18.9699 109.11 19.2219C108.774 19.4646 108.559 19.8379 108.466 20.3419H111.924C111.896 19.8846 111.728 19.5206 111.42 19.2499C111.112 18.9793 110.729 18.8439 110.272 18.8439ZM121.989 24.6679C121.279 24.6679 120.654 24.5139 120.113 24.2059C119.571 23.8979 119.142 23.4686 118.825 22.9179C118.517 22.3673 118.363 21.7373 118.363 21.0279C118.363 20.3186 118.517 19.6886 118.825 19.1379C119.142 18.5873 119.571 18.1579 120.113 17.8499C120.654 17.5419 121.279 17.3879 121.989 17.3879C122.875 17.3879 123.622 17.6213 124.229 18.0879C124.835 18.5453 125.223 19.1799 125.391 19.9919H123.501C123.407 19.6559 123.221 19.3946 122.941 19.2079C122.67 19.0119 122.348 18.9139 121.975 18.9139C121.48 18.9139 121.06 19.1006 120.715 19.4739C120.369 19.8473 120.197 20.3653 120.197 21.0279C120.197 21.6906 120.369 22.2086 120.715 22.5819C121.06 22.9553 121.48 23.1419 121.975 23.1419C122.348 23.1419 122.67 23.0486 122.941 22.8619C123.221 22.6753 123.407 22.4093 123.501 22.0639H125.391C125.223 22.8479 124.835 23.4779 124.229 23.9539C123.622 24.4299 122.875 24.6679 121.989 24.6679ZM130.313 24.6679C129.641 24.6679 129.035 24.5139 128.493 24.2059C127.961 23.8979 127.537 23.4733 127.219 22.9319C126.911 22.3813 126.757 21.7466 126.757 21.0279C126.757 20.3093 126.916 19.6793 127.233 19.1379C127.551 18.5873 127.975 18.1579 128.507 17.8499C129.049 17.5419 129.655 17.3879 130.327 17.3879C130.99 17.3879 131.587 17.5419 132.119 17.8499C132.661 18.1579 133.085 18.5873 133.393 19.1379C133.711 19.6793 133.869 20.3093 133.869 21.0279C133.869 21.7466 133.711 22.3813 133.393 22.9319C133.085 23.4733 132.661 23.8979 132.119 24.2059C131.578 24.5139 130.976 24.6679 130.313 24.6679ZM130.313 23.1139C130.78 23.1139 131.186 22.9413 131.531 22.5959C131.877 22.2413 132.049 21.7186 132.049 21.0279C132.049 20.3373 131.877 19.8193 131.531 19.4739C131.186 19.1193 130.785 18.9419 130.327 18.9419C129.851 18.9419 129.441 19.1193 129.095 19.4739C128.759 19.8193 128.591 20.3373 128.591 21.0279C128.591 21.7186 128.759 22.2413 129.095 22.5959C129.441 22.9413 129.847 23.1139 130.313 23.1139ZM135.472 24.4999V17.5559H137.054L137.194 18.7319C137.408 18.3213 137.716 17.9946 138.118 17.7519C138.528 17.5093 139.009 17.3879 139.56 17.3879C140.418 17.3879 141.086 17.6586 141.562 18.1999C142.038 18.7413 142.276 19.5346 142.276 20.5799V24.4999H140.484V20.7479C140.484 20.1506 140.362 19.6933 140.12 19.3759C139.877 19.0586 139.499 18.8999 138.986 18.8999C138.482 18.8999 138.066 19.0773 137.74 19.4319C137.422 19.7866 137.264 20.2813 137.264 20.9159V24.4999H135.472ZM151.651 24.6679C150.727 24.6679 149.92 24.4579 149.229 24.0379C148.538 23.6179 148.002 23.0346 147.619 22.2879C147.236 21.5319 147.045 20.6546 147.045 19.6559C147.045 18.6479 147.241 17.7613 147.633 16.9959C148.034 16.2213 148.599 15.6193 149.327 15.1899C150.064 14.7513 150.937 14.5319 151.945 14.5319C153.093 14.5319 154.045 14.8073 154.801 15.3579C155.557 15.9086 156.047 16.6693 156.271 17.6399H154.269C154.12 17.1826 153.849 16.8279 153.457 16.5759C153.065 16.3146 152.561 16.1839 151.945 16.1839C150.965 16.1839 150.209 16.4966 149.677 17.1219C149.145 17.7379 148.879 18.5873 148.879 19.6699C148.879 20.7526 149.14 21.5926 149.663 22.1899C150.195 22.7779 150.914 23.0719 151.819 23.0719C152.706 23.0719 153.373 22.8339 153.821 22.3579C154.278 21.8726 154.554 21.2379 154.647 20.4539H152.169V19.1099H156.453V24.4999H154.801L154.661 23.2119C154.344 23.6786 153.947 24.0379 153.471 24.2899C152.995 24.5419 152.388 24.6679 151.651 24.6679ZM161.485 24.6679C160.813 24.6679 160.206 24.5139 159.665 24.2059C159.133 23.8979 158.708 23.4733 158.391 22.9319C158.083 22.3813 157.929 21.7466 157.929 21.0279C157.929 20.3093 158.088 19.6793 158.405 19.1379C158.722 18.5873 159.147 18.1579 159.679 17.8499C160.22 17.5419 160.827 17.3879 161.499 17.3879C162.162 17.3879 162.759 17.5419 163.291 17.8499C163.832 18.1579 164.257 18.5873 164.565 19.1379C164.882 19.6793 165.041 20.3093 165.041 21.0279C165.041 21.7466 164.882 22.3813 164.565 22.9319C164.257 23.4733 163.832 23.8979 163.291 24.2059C162.75 24.5139 162.148 24.6679 161.485 24.6679ZM161.485 23.1139C161.952 23.1139 162.358 22.9413 162.703 22.5959C163.048 22.2413 163.221 21.7186 163.221 21.0279C163.221 20.3373 163.048 19.8193 162.703 19.4739C162.358 19.1193 161.956 18.9419 161.499 18.9419C161.023 18.9419 160.612 19.1193 160.267 19.4739C159.931 19.8193 159.763 20.3373 159.763 21.0279C159.763 21.7186 159.931 22.2413 160.267 22.5959C160.612 22.9413 161.018 23.1139 161.485 23.1139ZM169.975 24.6679C169.303 24.6679 168.697 24.5139 168.155 24.2059C167.623 23.8979 167.199 23.4733 166.881 22.9319C166.573 22.3813 166.419 21.7466 166.419 21.0279C166.419 20.3093 166.578 19.6793 166.895 19.1379C167.213 18.5873 167.637 18.1579 168.169 17.8499C168.711 17.5419 169.317 17.3879 169.989 17.3879C170.652 17.3879 171.249 17.5419 171.781 17.8499C172.323 18.1579 172.747 18.5873 173.055 19.1379C173.373 19.6793 173.531 20.3093 173.531 21.0279C173.531 21.7466 173.373 22.3813 173.055 22.9319C172.747 23.4733 172.323 23.8979 171.781 24.2059C171.24 24.5139 170.638 24.6679 169.975 24.6679ZM169.975 23.1139C170.442 23.1139 170.848 22.9413 171.193 22.5959C171.539 22.2413 171.711 21.7186 171.711 21.0279C171.711 20.3373 171.539 19.8193 171.193 19.4739C170.848 19.1193 170.447 18.9419 169.989 18.9419C169.513 18.9419 169.103 19.1193 168.757 19.4739C168.421 19.8193 168.253 20.3373 168.253 21.0279C168.253 21.7186 168.421 22.2413 168.757 22.5959C169.103 22.9413 169.509 23.1139 169.975 23.1139ZM177.636 22.4279C177.3 22.4279 176.987 22.3906 176.698 22.3159L176.18 22.8339C176.339 22.9179 176.553 22.9879 176.824 23.0439C177.095 23.0999 177.533 23.1559 178.14 23.2119C179.064 23.2959 179.736 23.5153 180.156 23.8699C180.576 24.2246 180.786 24.7146 180.786 25.3399C180.786 25.7506 180.674 26.1379 180.45 26.5019C180.226 26.8753 179.881 27.1739 179.414 27.3979C178.947 27.6313 178.35 27.7479 177.622 27.7479C176.633 27.7479 175.835 27.5613 175.228 27.1879C174.621 26.8239 174.318 26.2733 174.318 25.5359C174.318 24.9106 174.621 24.3693 175.228 23.9119C175.041 23.8279 174.878 23.7393 174.738 23.6459C174.607 23.5526 174.491 23.4546 174.388 23.3519V23.0299L175.606 21.7419C175.065 21.2659 174.794 20.6546 174.794 19.9079C174.794 19.4413 174.906 19.0166 175.13 18.6339C175.363 18.2513 175.69 17.9479 176.11 17.7239C176.53 17.4999 177.039 17.3879 177.636 17.3879C178.028 17.3879 178.392 17.4439 178.728 17.5559H181.36V18.6479L180.17 18.7319C180.357 19.0866 180.45 19.4786 180.45 19.9079C180.45 20.3746 180.338 20.7993 180.114 21.1819C179.89 21.5646 179.563 21.8679 179.134 22.0919C178.714 22.3159 178.215 22.4279 177.636 22.4279ZM177.636 21.0559C178 21.0559 178.299 20.9579 178.532 20.7619C178.775 20.5659 178.896 20.2859 178.896 19.9219C178.896 19.5579 178.775 19.2779 178.532 19.0819C178.299 18.8859 178 18.7879 177.636 18.7879C177.253 18.7879 176.945 18.8859 176.712 19.0819C176.479 19.2779 176.362 19.5579 176.362 19.9219C176.362 20.2859 176.479 20.5659 176.712 20.7619C176.945 20.9579 177.253 21.0559 177.636 21.0559ZM175.956 25.3539C175.956 25.6993 176.115 25.9559 176.432 26.1239C176.759 26.3013 177.155 26.3899 177.622 26.3899C178.07 26.3899 178.434 26.2966 178.714 26.1099C178.994 25.9326 179.134 25.6899 179.134 25.3819C179.134 25.1299 179.041 24.9199 178.854 24.7519C178.677 24.5839 178.317 24.4813 177.776 24.4439C177.393 24.4159 177.039 24.3739 176.712 24.3179C176.441 24.4673 176.245 24.6306 176.124 24.8079C176.012 24.9853 175.956 25.1673 175.956 25.3539ZM182.667 24.4999V14.4199H184.459V24.4999H182.667ZM189.664 24.6679C188.964 24.6679 188.343 24.5186 187.802 24.2199C187.261 23.9213 186.836 23.5013 186.528 22.9599C186.22 22.4186 186.066 21.7933 186.066 21.0839C186.066 20.3653 186.215 19.7259 186.514 19.1659C186.822 18.6059 187.242 18.1719 187.774 17.8639C188.315 17.5466 188.95 17.3879 189.678 17.3879C190.359 17.3879 190.961 17.5373 191.484 17.8359C192.007 18.1346 192.413 18.5453 192.702 19.0679C193.001 19.5813 193.15 20.1553 193.15 20.7899C193.15 20.8926 193.145 20.9999 193.136 21.1119C193.136 21.2239 193.131 21.3406 193.122 21.4619H187.844C187.881 22.0033 188.068 22.4279 188.404 22.7359C188.749 23.0439 189.165 23.1979 189.65 23.1979C190.014 23.1979 190.317 23.1186 190.56 22.9599C190.812 22.7919 190.999 22.5773 191.12 22.3159H192.94C192.809 22.7546 192.59 23.1559 192.282 23.5199C191.983 23.8746 191.61 24.1546 191.162 24.3599C190.723 24.5653 190.224 24.6679 189.664 24.6679ZM189.678 18.8439C189.239 18.8439 188.852 18.9699 188.516 19.2219C188.18 19.4646 187.965 19.8379 187.872 20.3419H191.33C191.302 19.8846 191.134 19.5206 190.826 19.2499C190.518 18.9793 190.135 18.8439 189.678 18.8439Z" fill="#494B49"/>
<rect x="0.5" y="0.499939" width="209" height="39" rx="19.5" stroke="#DFE1E0"/>
</svg>
