<svg width="87" height="40" viewBox="0 0 87 40" fill="none" xmlns="http://www.w3.org/2000/svg">
<path d="M7.41261 22.0931L7.0287 25.3316C7.0287 25.3316 8.72471 25.8497 8.9721 25.8783C9.21949 25.9068 9.88837 25.5482 10.1962 25.079C10.5041 24.6098 10.5444 24.2678 10.5444 24.2678C10.5444 24.2678 17.8086 28.6447 27.2434 30.5981C36.6782 32.5516 37.8465 32.7544 37.8465 32.7544C37.8465 32.7544 39.4958 34.7225 40.0244 35.0369C40.5531 35.3512 44.4812 36.8806 46.4484 37.3876C51.7481 38.7612 59.9056 40.3808 61.226 39.9199C61.642 39.7733 63.6651 33.6449 63.6651 33.6449C68.59 33.5859 84.863 26.8444 86.6057 17.5125C87.3561 13.4987 81.2913 2.53788 62.2128 0.374295C43.1343 -1.78929 19.8702 5.96902 12.5162 9.75967L11.3132 10.3727C11.3132 10.3727 11.0484 9.96248 10.7396 9.92469C10.4308 9.88689 8.79618 10.4492 8.79618 10.4492L8.58177 12.2542C8.58177 12.2542 7.07726 13.2784 6.21963 14.687C5.362 16.0956 5.31436 16.4726 5.31436 16.4726C5.31436 16.4726 2.3823 16.3113 1.94982 16.2587C1.51734 16.2062 0 16.845 0 16.845L4.98633 18.202C5.06841 18.9208 5.33317 19.6063 5.75508 20.1923C6.26184 20.8648 6.81576 21.5001 7.41261 22.0931Z" fill="#439E37"/>
<path d="M18.5874 11.3582C19.4542 11.0097 20.3231 10.6665 21.1942 10.3285C21.0861 14.0574 21.011 17.7872 20.9193 21.517C21.962 21.8544 23.0157 22.1555 24.0805 22.4204C24.0585 23.4252 24.0466 23.9073 24.0191 24.7896C22.1567 24.1716 20.3416 23.4176 18.5883 22.5338C18.5877 18.8089 18.5874 15.0837 18.5874 11.3582Z" fill="white"/>
<path d="M27.5797 22.0305C27.4175 23.2243 27.2489 24.4162 27.0208 25.5999C26.0733 25.3888 25.596 25.2625 24.6476 24.9859C25.9808 19.4502 26.4389 13.7282 27.3387 8.11601C28.1627 7.84683 28.9904 7.59086 29.8218 7.34811C30.8783 13.6471 31.3565 20.0475 32.5514 26.3281C31.6855 26.3014 31.2365 26.2673 30.3239 26.1622C30.0994 24.8716 29.9162 23.5709 29.7347 22.2711C28.8835 22.1982 28.4511 22.1494 27.5797 22.0305ZM29.4663 19.2649C29.3111 17.8373 29.1584 16.409 29.0081 14.9801C28.8478 13.5476 28.7149 12.1113 28.5775 10.676L28.5299 10.6889C28.4098 12.1639 28.3118 13.6388 28.1826 15.1055C28.0568 16.4772 27.9266 17.8486 27.7923 19.2197C28.4675 19.2483 28.8029 19.2584 29.4644 19.2704L29.4663 19.2649Z" fill="white"/>
<path d="M33.0031 6.70097C33.5079 6.40874 34.262 6.14786 35.0775 5.96349C36.112 5.73118 37.3728 5.74224 38.1562 6.57007C39.9887 8.50596 39.8119 12.3224 39.8806 14.7561C39.9649 17.718 40.1976 21.6368 38.443 24.2669C37.7099 25.3676 36.8441 26.1502 35.4898 26.3069C34.9228 26.3636 34.3514 26.358 33.7856 26.2903C33.5299 19.7618 33.2605 13.2314 33.0031 6.70097ZM35.7345 23.7073C35.8452 23.7453 35.9645 23.7504 36.0781 23.7221C38.2148 23.2667 37.5771 16.6892 37.5386 15.1636C37.5093 14.038 37.6779 7.90399 35.5457 8.31421C35.3956 8.33512 35.2547 8.39913 35.1398 8.49858C35.3383 13.5682 35.5366 18.6377 35.7345 23.7073Z" fill="white"/>
<path d="M49.4629 4.26728C50.2521 4.07807 51.0576 3.96631 51.8681 3.93357C52.876 3.88563 54.0672 3.99902 54.7351 4.85542C55.5277 5.86946 55.568 7.37853 55.5689 8.62395C55.5689 10.499 55.2748 12.8285 53.839 14.2012V14.2685C55.0036 15.2871 55.0916 17.2829 55.2583 18.6869C55.4352 20.1785 55.4681 21.8857 56.0399 23.3091C54.9807 23.2427 54.4822 23.2169 53.5119 23.1865C53.1784 21.9263 53.1454 20.5795 53.0391 19.2962C52.9686 18.4398 53.0749 15.9886 51.7857 15.8623L51.4714 15.8688C51.4476 18.297 51.4485 20.7316 51.3138 23.1579C50.4497 23.1643 50.031 23.1772 49.2064 23.2261C49.5197 16.9105 49.1798 10.5801 49.4629 4.26728ZM51.4998 12.4284L51.88 12.4211C53.2618 12.1445 53.3772 10.0574 53.3983 8.95397C53.4157 8.06254 53.358 6.1073 52.0972 6.09623C51.9197 6.08986 51.7435 6.12987 51.5859 6.21239C51.5337 8.28379 51.5172 10.3561 51.4998 12.4284Z" fill="white"/>
<path d="M59.2716 4.15205C59.2349 10.6852 59.508 17.2175 59.4722 23.7506C58.7864 23.5862 58.0898 23.4713 57.3877 23.4068C57.3749 16.9308 57.0707 10.4584 57.057 3.98335C57.9476 4.01838 58.3901 4.05156 59.2716 4.15205Z" fill="white"/>
<path d="M62.911 20.6532C62.8194 21.9715 62.7277 23.2897 62.5931 24.6043C61.762 24.3581 61.3469 24.2281 60.4994 24.0032C61.642 17.6351 61.5659 11.089 62.8313 4.7365C63.7097 4.92825 64.5798 5.15379 65.4417 5.41314C66.1152 12.1371 66.4725 18.8897 67.0498 25.622C66.3916 25.5556 65.7388 25.4429 65.0963 25.2846C64.9781 23.8889 64.8691 22.4923 64.7609 21.0957C64.0178 20.9242 63.6495 20.8302 62.911 20.6532ZM64.6226 17.8471C64.5249 16.2615 64.4256 14.6762 64.3248 13.0912C64.2121 11.4633 64.1223 9.83434 64.027 8.20543L63.9775 8.19068C63.8135 9.75783 63.6889 11.3333 63.5441 12.905C63.4012 14.4261 63.2693 15.9471 63.1291 17.4719C63.7256 17.6166 64.0234 17.6941 64.6226 17.8425V17.8471Z" fill="white"/>
<path d="M68.2309 25.6939C68.5131 19.3331 68.5662 12.9723 68.8484 6.61155C69.6492 6.9342 70.0496 7.1075 70.855 7.47993C71.3801 9.90901 71.8739 12.3455 72.4072 14.7736C72.7737 16.4671 73.1824 18.1513 73.591 19.8355L73.6286 19.8291C73.5626 17.2719 73.5095 14.7174 73.5516 12.1583C73.5773 11.0638 73.6057 9.96924 73.6368 8.8747C74.4166 9.29598 74.8087 9.51999 75.5976 9.98092V23.5109C74.8202 23.9804 74.0081 24.3894 73.1686 24.7342C72.3971 22.8527 71.9298 20.8625 71.4671 18.8888C71.042 16.9252 70.6947 14.9386 70.4665 12.9419L70.4326 12.9327C70.4198 15.8891 70.3914 18.8436 70.3016 21.7991C70.2576 23.0565 70.21 24.3139 70.155 25.5704C69.5192 25.6747 68.8747 25.7161 68.2309 25.6939Z" fill="white"/>
<path d="M47.9071 14.6261C47.9071 21.7613 46.475 24.655 44.4381 24.655C42.0027 24.655 41.0479 20.1038 41.0479 14.9073C41.0479 9.73755 42.2088 5.27117 44.5801 5.27117C47.175 5.27117 47.9071 10.2999 47.9071 14.6261ZM43.2121 14.9635C43.2121 19.2612 43.6703 21.4525 44.5178 21.4525C45.3929 21.4525 45.7264 18.6436 45.7264 14.7939C45.7264 11.4752 45.4405 8.47369 44.5022 8.47369C43.6739 8.47369 43.2121 10.8889 43.2121 14.9635Z" fill="white"/>
</svg>
